<svg width="38" height="38" viewBox="0 0 38 38" fill="none" xmlns="http://www.w3.org/2000/svg">
<g filter="url(#filter0_dd_56_21107)">
<g clip-path="url(#clip0_56_21107)">
<rect x="3" y="2" width="32" height="32" rx="8" fill="white"/>
<rect x="3" y="2" width="32" height="32" rx="8" fill="url(#paint0_linear_56_21107)"/>
<path fill-rule="evenodd" clip-rule="evenodd" d="M19 4.03882C11.2895 4.03882 5.03885 10.2894 5.03885 18C5.03885 25.7105 11.2895 31.9612 19 31.9612C26.7106 31.9612 32.9612 25.7105 32.9612 18C32.9612 10.2894 26.7106 4.03882 19 4.03882ZM4.96118 18C4.96118 10.2466 11.2466 3.96115 19 3.96115C26.7535 3.96115 33.0389 10.2466 33.0389 18C33.0389 25.7534 26.7535 32.0388 19 32.0388C11.2466 32.0388 4.96118 25.7534 4.96118 18Z" fill="#D0D5DD"/>
<path fill-rule="evenodd" clip-rule="evenodd" d="M19 14.0779C16.8338 14.0779 15.0777 15.834 15.0777 18.0002C15.0777 20.1665 16.8338 21.9225 19 21.9225C21.1662 21.9225 22.9223 20.1665 22.9223 18.0002C22.9223 15.834 21.1662 14.0779 19 14.0779ZM15 18.0002C15 15.7911 16.7909 14.0002 19 14.0002C21.2091 14.0002 23 15.7911 23 18.0002C23 20.2094 21.2091 22.0002 19 22.0002C16.7909 22.0002 15 20.2094 15 18.0002Z" fill="#D0D5DD"/>
<path fill-rule="evenodd" clip-rule="evenodd" d="M19 15.3201C17.52 15.3201 16.3203 16.5198 16.3203 17.9997C16.3203 19.4796 17.52 20.6793 19 20.6793C20.4799 20.6793 21.6796 19.4796 21.6796 17.9997C21.6796 16.5198 20.4799 15.3201 19 15.3201ZM16.2427 17.9997C16.2427 16.4769 17.4772 15.2424 19 15.2424C20.5228 15.2424 21.7572 16.4769 21.7572 17.9997C21.7572 19.5225 20.5228 20.757 19 20.757C17.4772 20.757 16.2427 19.5225 16.2427 17.9997Z" fill="#D0D5DD"/>
<path d="M18.9612 2H19.0389V34H18.9612V2Z" fill="#D0D5DD"/>
<path d="M35 17.9609L35 18.0386L3 18.0386L3 17.9609L35 17.9609Z" fill="#D0D5DD"/>
<path d="M29.6019 2H29.6796V34H29.6019V2Z" fill="#D0D5DD"/>
<path d="M13.6407 2H13.7184V34H13.6407V2Z" fill="#D0D5DD"/>
<path d="M24.2815 2H24.3592V34H24.2815V2Z" fill="#D0D5DD"/>
<path d="M8.32031 2H8.39798V34H8.32031V2Z" fill="#D0D5DD"/>
<path d="M35 28.6016L35 28.6792L3 28.6792L3 28.6016L35 28.6016Z" fill="#D0D5DD"/>
<path d="M35 12.6406L35 12.7183L3 12.7183L3 12.6406L35 12.6406Z" fill="#D0D5DD"/>
<path d="M35 23.2812L35 23.3589L3 23.3589L3 23.2812L35 23.2812Z" fill="#D0D5DD"/>
<path d="M35 7.32031L35 7.39798L3 7.39798L3 7.32031L35 7.32031Z" fill="#D0D5DD"/>
<g clip-path="url(#clip1_56_21107)">
<path d="M12.25 25.75V10.5L27.5 25.75H12.25Z" stroke="#101828" stroke-width="0.5" stroke-miterlimit="10"/>
<path d="M15.5 23.5V17.5L21.5 23.5H15.5Z" stroke="#101828" stroke-width="0.5" stroke-miterlimit="10"/>
<path d="M14 15.5H12.5" stroke="#101828" stroke-width="0.5" stroke-miterlimit="10"/>
<path d="M13.5 17.5H12.5" stroke="#101828" stroke-width="0.5" stroke-miterlimit="10"/>
<path d="M14 19.5H12.5" stroke="#101828" stroke-width="0.5" stroke-miterlimit="10"/>
<path d="M13.5 21.5H12.5" stroke="#101828" stroke-width="0.5" stroke-miterlimit="10"/>
<path d="M14 23.5H12.5" stroke="#101828" stroke-width="0.5" stroke-miterlimit="10"/>
<path d="M18.25 10.25L16.75 11.75L25.75 20.75L27.75 21.25L27.25 19.25L18.25 10.25Z" stroke="#101828" stroke-width="0.5" stroke-miterlimit="10"/>
<path d="M18.25 13.25L19.75 11.75" stroke="#101828" stroke-width="0.5" stroke-miterlimit="10"/>
</g>
</g>
<rect x="3.15" y="2.15" width="31.7" height="31.7" rx="7.85" stroke="#D0D5DD" stroke-width="0.3"/>
</g>
<defs>
<filter id="filter0_dd_56_21107" x="0" y="0" width="38" height="38" filterUnits="userSpaceOnUse" color-interpolation-filters="sRGB">
<feFlood flood-opacity="0" result="BackgroundImageFix"/>
<feColorMatrix in="SourceAlpha" type="matrix" values="0 0 0 0 0 0 0 0 0 0 0 0 0 0 0 0 0 0 127 0" result="hardAlpha"/>
<feOffset dy="1"/>
<feGaussianBlur stdDeviation="1"/>
<feColorMatrix type="matrix" values="0 0 0 0 0.0627451 0 0 0 0 0.0941176 0 0 0 0 0.156863 0 0 0 0.06 0"/>
<feBlend mode="normal" in2="BackgroundImageFix" result="effect1_dropShadow_56_21107"/>
<feColorMatrix in="SourceAlpha" type="matrix" values="0 0 0 0 0 0 0 0 0 0 0 0 0 0 0 0 0 0 127 0" result="hardAlpha"/>
<feOffset dy="1"/>
<feGaussianBlur stdDeviation="1.5"/>
<feColorMatrix type="matrix" values="0 0 0 0 0.0627451 0 0 0 0 0.0941176 0 0 0 0 0.156863 0 0 0 0.1 0"/>
<feBlend mode="normal" in2="effect1_dropShadow_56_21107" result="effect2_dropShadow_56_21107"/>
<feBlend mode="normal" in="SourceGraphic" in2="effect2_dropShadow_56_21107" result="shape"/>
</filter>
<linearGradient id="paint0_linear_56_21107" x1="19" y1="2" x2="19" y2="34" gradientUnits="userSpaceOnUse">
<stop stop-color="white"/>
<stop offset="1" stop-color="#D0D5DD"/>
</linearGradient>
<clipPath id="clip0_56_21107">
<rect x="3" y="2" width="32" height="32" rx="8" fill="white"/>
</clipPath>
<clipPath id="clip1_56_21107">
<rect width="16" height="16" fill="white" transform="translate(12 10)"/>
</clipPath>
</defs>
</svg>
